<?xml version="1.0" encoding="UTF-8"?>
<svg xmlns="http://www.w3.org/2000/svg" xmlns:xlink="http://www.w3.org/1999/xlink" viewBox="0 0 372.52 94.14">
  <defs>
    <style>
      .cls-1 {
        fill: #fff;
      }

      .cls-2 {
        fill: blue;
      }

      .cls-3 {
        clip-path: url(#clippath);
      }

      .cls-4 {
        fill: none;
      }
    </style>
    <clipPath id="clippath">
      <rect x="0" y="0" width="372.52" height="94.14" style="fill: none;"/>
    </clipPath>
  </defs>
  <g id="_лой_1" data-name="Слой 1"/>
  <g id="_лой_2" data-name="Слой 2">
    <g id="_лой_1-2" data-name="Слой 1">
      <g style="clip-path: url(#clippath);">
        <g>
          <path d="M26.25,35.43h16.09v-12.89H26.25V8.39l-14.64,4.56v9.59H0v12.89H11.61v27.9c0,2.58,.67,4.56,2.04,5.95,1.35,1.39,3.35,2.09,5.99,2.09h24.61v-12.89l-18.01,.1v-23.16Zm54.15-8.96c-2.9,2.68-4.89,6.22-5.91,10.62h-3.68l3.11-6.2v-1.74c0-2.07-.76-3.68-2.23-4.85-1.47-1.17-3.41-1.74-5.81-1.74h-15.31v12.89h8.71v23.07h-8.71v12.89h38.06v-12.89h-15v-5.52c0-4.28,.53-7.67,1.59-10.23,1.06-2.56,2.6-4.42,4.6-5.56,2-1.17,4.42-1.74,7.26-1.74h10.36v-12.99h-5.72c-4.64,0-8.42,1.35-11.32,4.03v-.04Zm69.54,15.55c0-4.46-1.1-8.2-3.29-11.23-2.19-3.03-5.15-5.34-8.85-6.87-3.72-1.55-7.93-2.33-12.63-2.33-4.46,0-8.46,.76-12,2.27-3.56,1.51-6.36,3.74-8.42,6.65-2.06,2.9-3.21,6.36-3.39,10.37h14.04c.14-2.58,1.08-4.56,2.86-5.91,1.78-1.35,4.21-2.03,7.3-2.03,3.09,0,5.54,.68,7.13,2.03,1.57,1.35,2.41,3.56,2.47,6.59l-15.78,1.64c-6.91,.65-11.83,2.21-14.78,4.64-2.94,2.45-4.42,5.85-4.42,10.19,0,3.62,1.29,6.91,3.88,9.88,2.58,2.97,7.2,4.46,13.84,4.46,6.19,0,10.81-1.35,13.84-4.03,3.03-2.68,5.03-6.22,6.01-10.62h3.68l-2.33,5.73v.88c0,2.27,.65,4.01,1.94,5.24,1.29,1.23,3.03,1.84,5.23,1.84h10.75v-12.89h-7.07v-16.47l-.02-.02Zm-16.62,13.13c-1.21,1.72-2.82,3.03-4.84,3.97-2.02,.94-4.37,1.41-7.03,1.41-2.13,0-3.78-.39-4.99-1.17-1.21-.78-1.8-2.05-1.8-3.78,0-1.35,.49-2.35,1.45-2.95,.96-.61,2.58-1.08,4.84-1.41,.39-.06,.72-.12,.96-.18l13.16-1.74c0,2.19-.59,4.15-1.8,5.87l.04-.02Zm73.18-30.91c-2.96-1.78-6.52-2.66-10.65-2.66-4.97,0-9.01,1.43-12.16,4.32-3.13,2.88-5.21,6.61-6.23,11.19h-3.78l2.8-8.33v-6.2h-14.82v48.85h14.82v-18.51c0-4.46,.59-8.04,1.74-10.76,1.17-2.72,2.78-4.66,4.89-5.87,2.1-1.19,4.62-1.8,7.6-1.8,3.8,0,6.48,.94,7.99,2.8,1.51,1.88,2.27,5.11,2.27,9.7v24.42h14.82v-26.76c0-5.03-.82-9.25-2.41-12.64-1.61-3.4-3.9-5.97-6.89-7.75h.02Zm58.99,23.89c-2.66-2.27-6.25-3.95-10.85-5.03l-11.32-2.8c-1.74-.45-3.05-1.04-3.92-1.8-.88-.74-1.31-1.58-1.31-2.48,0-1.29,.59-2.27,1.74-2.9,1.17-.63,2.86-.96,5.13-.96,3.03,0,5.27,.57,6.72,1.7,1.45,1.13,2.19,2.88,2.19,5.28h14.72c0-5.69-2.08-10.02-6.25-13.03-4.17-3.01-10-4.5-17.48-4.5-4.52,0-8.4,.55-11.63,1.66-3.23,1.1-5.7,2.7-7.4,4.79-1.72,2.11-2.55,4.7-2.55,7.81,0,3.8,1.19,6.79,3.58,8.92,2.39,2.13,5.23,3.68,8.52,4.64l14.9,3.97c1.47,.45,2.58,1.02,3.29,1.7,.72,.68,1.06,1.49,1.06,2.48,0,1.49-.57,2.58-1.7,3.25-1.12,.68-3.05,1.02-5.76,1.02-3.62,0-6.32-.65-8.09-1.98-1.78-1.33-2.66-3.38-2.66-6.16h-14.72c0,4.07,.96,7.49,2.9,10.27,1.94,2.78,4.76,4.87,8.46,6.3,3.72,1.41,8.34,2.13,13.9,2.13,4.97,0,9.12-.55,12.45-1.66,3.33-1.1,5.83-2.74,7.5-4.95,1.68-2.19,2.51-4.87,2.51-8.04,0-4.13-1.33-7.34-3.96-9.59l.04-.02Z" style="fill: #fff;"/>
          <path d="M281.67,47.89c3.17-2.48,8.24-4.03,15.21-4.6l17.82-1.74c.39-2.9-.2-5.07-1.74-6.5-1.55-1.41-4.03-2.13-7.46-2.13-3.11,0-5.46,.63-7.07,1.9-1.61,1.25-2.72,3.27-3.29,6.05h-13.94c.65-4.19,2.15-7.73,4.52-10.62,2.35-2.86,5.36-5.03,8.99-6.48,3.66-1.45,7.66-2.19,12.06-2.19,4.91,0,9.22,.9,12.94,2.72,3.72,1.8,6.42,4.5,8.14,8.1,1.72,3.58,2.04,8.02,1.02,13.32l-2.51,12.78h13.55l-2.43,12.89h-16.56c-2,0-3.62-.65-4.84-1.94-1.23-1.29-1.57-3.01-1.06-5.13l.18-.59,3.01-6.01h-3.58c-1.61,4.34-3.97,7.85-7.03,10.56-3.07,2.72-7.65,4.07-13.7,4.07-6.91,0-11.55-1.43-13.94-4.32-2.39-2.88-3.45-6.18-3.21-9.94,.12-4.32,1.78-7.73,4.95-10.23l-.02,.04Zm11.32,11.5c1.1,.78,2.68,1.17,4.74,1.17,2.72,0,5.15-.49,7.3-1.45,2.17-.96,3.99-2.31,5.48-4.03,1.47-1.72,2.39-3.64,2.72-5.77l-13.86,1.74c-.25,.06-.57,.12-.96,.18-2.27,.33-3.92,.8-4.99,1.41-1.06,.61-1.66,1.6-1.8,2.95-.18,1.74,.27,3.01,1.35,3.78l.02,.02Z" style="fill: blue;"/>
          <path d="M331.56,58.5h13.55l4.46-23.07h-15.53l2.51-12.89h21.52c2.45,0,4.21,.63,5.27,1.88,1.06,1.25,1.37,3.15,.92,5.67l-5.52,28.39h13.76l-2.51,12.89h-40.96l2.51-12.89,.02,.02Z" style="fill: blue;"/>
          <path d="M371.09,0h-30.11l-2.51,12.89h17.66c7.24,0,13.45-5.13,14.84-12.23L371.09,0Z" style="fill: blue;"/>
          <path d="M302.09,81.04h-30.11l-2.51,12.89h17.66c7.24,0,13.45-5.13,14.84-12.23l.12-.65Z" style="fill: blue;"/>
          <path d="M319.32,82.44c1.08-1.1,2.53-1.64,4.33-1.64,.94,0,1.78,.16,2.56,.47,.78,.31,1.35,.8,1.78,1.49,.43,.67,.59,1.53,.51,2.58-.12,1.39-.7,2.52-1.7,3.38-1.02,.86-2.25,1.49-3.66,1.9-1.41,.41-3.11,.68-5.01,.8-.27,.02-.55,.04-.84,.06l-.14,.7,1.94-.45h8.24l-.43,2.21h-10.77l.86-4.32c1.25-.06,2.53-.2,3.82-.45,1.29-.25,2.43-.65,3.41-1.25,.98-.59,1.55-1.41,1.74-2.45,.1-.53,.06-.96-.12-1.33-.18-.37-.47-.63-.86-.82-.39-.18-.88-.27-1.43-.27-1.04,0-1.88,.33-2.47,.96s-1.02,1.64-1.25,3.03h-2.53c.29-1.94,.98-3.48,2.06-4.56l-.04-.04Z" style="fill: blue;"/>
          <path d="M331.93,93.24c-.86-.59-1.45-1.41-1.8-2.47-.35-1.06-.41-2.25-.2-3.6,.16-1.27,.53-2.39,1.1-3.33,.57-.94,1.33-1.7,2.27-2.23,.94-.53,2.04-.8,3.31-.8,1.27,0,2.39,.31,3.25,.9,.86,.59,1.45,1.41,1.8,2.45,.35,1.04,.41,2.25,.22,3.6-.18,1.29-.55,2.41-1.12,3.35-.57,.94-1.33,1.7-2.27,2.23-.94,.53-2.04,.8-3.27,.8-1.35,0-2.43-.31-3.31-.9h.02Zm-1.17-2.25l9.28-8.47,1.04,1.31-9.28,8.43-1.04-1.27Zm7.26-.1c.67-.7,1.12-1.76,1.37-3.17,.14-.92,.14-1.72,0-2.41-.14-.7-.45-1.27-.94-1.68-.49-.43-1.17-.63-2-.63-.74,0-1.37,.16-1.9,.49-.53,.33-.98,.8-1.33,1.43-.35,.63-.59,1.39-.76,2.31-.14,.88-.14,1.68,0,2.39,.14,.72,.45,1.27,.94,1.7,.49,.43,1.19,.63,2.04,.63,1.04,0,1.9-.35,2.58-1.04v-.02Z" style="fill: blue;"/>
          <path d="M345.64,82.44c1.08-1.1,2.53-1.64,4.33-1.64,.94,0,1.78,.16,2.55,.47,.78,.31,1.35,.8,1.78,1.49,.43,.67,.59,1.53,.51,2.58-.12,1.39-.7,2.52-1.7,3.38-1.02,.86-2.25,1.49-3.66,1.9-1.41,.41-3.11,.68-5.01,.8-.27,.02-.55,.04-.84,.06l-.14,.7,1.94-.45h8.24l-.43,2.21h-10.77l.86-4.32c1.25-.06,2.53-.2,3.82-.45,1.29-.25,2.43-.65,3.41-1.25,.98-.59,1.55-1.41,1.74-2.45,.1-.53,.06-.96-.12-1.33s-.47-.63-.86-.82c-.39-.18-.88-.27-1.43-.27-1.04,0-1.88,.33-2.47,.96-.59,.63-1.02,1.64-1.25,3.03h-2.53c.29-1.94,.98-3.48,2.06-4.56l-.04-.04Z" style="fill: blue;"/>
          <path d="M360.28,84.87c1.14-1.02,1.92-2.29,2.35-3.85h2.56c-.55,2.05-1.57,3.76-3.07,5.15-1.49,1.39-3.43,2.39-5.81,3.03l-.12,.61,1.76-.43h8.48l-.41,2.11h-10.75l.88-4.5c1.61-.39,2.98-1.08,4.13-2.11v-.02Zm5.38,1.04l-1.57,8h-2.45l1.57-8h2.45Z" style="fill: blue;"/>
        </g>
      </g>
    </g>
  </g>
</svg>